<mxfile host="app.diagrams.net" modified="2023-10-27T11:20:49.647Z" agent="Mozilla/5.0 (Windows NT 10.0; Win64; x64) AppleWebKit/537.36 (KHTML, like Gecko) Chrome/118.0.0.0 Safari/537.36 Edg/118.0.2088.69" version="22.0.8" etag="fjgcPIuFsNA7NJpJf8UD" type="github">
  <diagram name="Страница — 1" id="vhwWmFYBPfRQbFzPmXqK">
    <mxGraphModel>
      <root>
        <mxCell id="0" />
        <mxCell id="1" parent="0" />
      </root>
    </mxGraphModel>
  </diagram>
</mxfile>
